<?xml version="1.0" standalone="no"?>
<!DOCTYPE svg PUBLIC "-//W3C//DTD SVG 20010904//EN"
 "http://www.w3.org/TR/2001/REC-SVG-20010904/DTD/svg10.dtd">
<svg version="1.0" xmlns="http://www.w3.org/2000/svg"
 width="231.000000pt" height="218.000000pt" viewBox="0 0 231.000000 218.000000"
 preserveAspectRatio="xMidYMid meet">

<g transform="translate(0.000000,218.000000) scale(0.100000,-0.100000)"
fill="#000000" stroke="none">
<path d="M1021 2168 c-13 -5 -29 -25 -39 -49 -13 -34 -25 -46 -81 -74 -126
-63 -196 -146 -228 -270 -12 -46 -14 -89 -10 -187 l6 -126 -25 -17 c-14 -9
-32 -31 -41 -50 -14 -29 -15 -40 -4 -77 15 -50 83 -154 189 -288 42 -52 80
-101 85 -107 13 -18 -42 -84 -106 -125 -65 -43 -143 -74 -320 -127 -76 -23
-169 -57 -207 -76 -84 -42 -159 -116 -194 -188 -23 -49 -46 -150 -46 -204 l0
-23 676 0 c640 0 676 1 671 18 -44 134 -48 159 -44 262 3 88 9 118 35 185 18
44 50 104 72 133 l40 53 -25 33 c-14 18 -25 38 -25 44 0 7 37 59 83 116 127
162 190 267 195 330 4 49 2 55 -24 75 l-29 23 -5 171 c-5 158 -7 176 -31 227
-42 89 -141 175 -284 247 -110 56 -239 88 -284 71z"/>
<path d="M1820 863 c-54 -8 -147 -47 -192 -80 -66 -48 -107 -98 -141 -173 -25
-53 -31 -82 -35 -157 -4 -82 -1 -99 23 -163 115 -302 492 -378 717 -143 45 47
94 149 109 227 14 78 -3 182 -43 258 -83 156 -274 257 -438 231z m142 -153
c21 -6 40 -16 44 -21 6 -10 -362 -389 -378 -389 -8 0 -24 50 -33 101 -10 54
11 140 47 194 67 101 199 148 320 115z m184 -181 c18 -48 17 -137 -2 -191 -31
-91 -127 -168 -230 -184 -42 -6 -137 9 -164 26 -12 8 24 48 175 200 104 104
194 189 199 187 5 -2 15 -19 22 -38z"/>
</g>
</svg>
