<?xml version="1.0" standalone="no"?>
<!DOCTYPE svg PUBLIC "-//W3C//DTD SVG 20010904//EN"
 "http://www.w3.org/TR/2001/REC-SVG-20010904/DTD/svg10.dtd">
<svg version="1.0" xmlns="http://www.w3.org/2000/svg"
 width="612.000000pt" height="612.000000pt" viewBox="0 0 612.000000 612.000000"
 preserveAspectRatio="xMidYMid meet">

<g transform="translate(0.000000,612.000000) scale(0.100000,-0.100000)"
fill="#000000" stroke="none">
<path d="M1723 4856 c-124 -39 -225 -140 -263 -262 -19 -64 -20 -91 -20 -856
0 -522 3 -796 10 -809 16 -29 67 -51 101 -44 16 4 38 18 49 32 20 25 20 39 20
798 0 851 -1 840 62 904 70 72 -73 66 1588 69 1102 2 1509 0 1549 -8 61 -14
126 -65 148 -118 11 -27 13 -228 13 -1168 0 -1223 2 -1168 -52 -1226 -60 -63
-59 -63 -456 -68 l-364 -5 -24 -28 -24 -28 0 -347 -1 -347 -51 55 c-28 30
-172 186 -320 347 -147 160 -282 305 -299 322 -31 31 -31 31 -144 31 -106 0
-116 -2 -142 -24 -39 -34 -39 -98 0 -132 24 -21 39 -24 102 -24 l73 0 164
-177 c89 -98 273 -297 407 -443 135 -146 258 -271 273 -278 35 -15 69 -7 97
22 20 22 21 32 23 447 l3 424 315 5 315 5 65 31 c108 53 181 140 214 255 15
50 16 176 14 1205 l-3 1149 -23 58 c-33 81 -116 168 -200 209 l-67 33 -1555 2
c-1267 1 -1563 -1 -1597 -11z"/>
<path d="M2096 4279 c-35 -41 -34 -83 3 -120 l29 -29 527 0 527 0 29 29 c37
37 38 79 3 120 l-26 31 -533 0 -533 0 -26 -31z"/>
<path d="M2124 3690 c-28 -11 -54 -48 -54 -78 0 -30 25 -78 45 -86 9 -3 585
-6 1279 -6 l1263 0 20 23 c11 12 23 33 26 46 8 33 -18 85 -49 100 -30 13
-2496 15 -2530 1z"/>
<path d="M1956 3128 c-14 -13 -91 -142 -172 -288 -80 -146 -149 -268 -153
-273 -4 -4 -113 -28 -242 -53 -129 -25 -266 -51 -306 -59 -111 -21 -133 -40
-133 -109 0 -32 20 -56 220 -270 180 -192 220 -239 220 -263 0 -15 -16 -152
-35 -303 -42 -332 -42 -334 -10 -365 48 -49 52 -48 530 180 72 34 137 59 145
57 8 -3 139 -63 290 -134 297 -140 325 -148 368 -105 32 33 32 40 -13 395 -36
286 -36 294 -18 315 10 12 106 115 213 230 107 115 200 219 207 231 20 34 15
63 -14 96 -27 28 -40 32 -343 90 -173 34 -318 66 -322 73 -4 7 -76 135 -158
284 -83 150 -160 277 -170 283 -31 17 -77 11 -104 -12z m184 -488 c67 -122
132 -227 144 -236 13 -8 133 -35 267 -61 134 -25 246 -48 248 -49 2 -2 -56
-68 -130 -146 -74 -79 -153 -163 -176 -188 -23 -25 -45 -56 -48 -70 -3 -14 8
-135 25 -269 17 -134 28 -246 26 -249 -3 -3 -108 43 -233 102 -126 58 -240
106 -253 106 -14 -1 -128 -50 -255 -109 -126 -60 -231 -108 -232 -107 -1 0 12
105 28 231 16 127 29 249 29 272 0 40 -6 48 -175 228 -96 102 -175 190 -175
196 0 5 4 9 10 9 28 0 478 92 497 101 13 7 70 100 145 235 68 123 126 224 129
224 4 0 62 -99 129 -220z"/>
<path d="M2686 2944 c-37 -37 -35 -86 3 -125 l29 -29 956 0 c608 0 964 4 981
10 15 6 32 24 41 45 12 30 12 39 0 69 -8 19 -23 39 -34 45 -15 8 -313 11 -985
11 l-964 0 -27 -26z"/>
</g>
</svg>
