<?xml version="1.0" standalone="no"?>
<!DOCTYPE svg PUBLIC "-//W3C//DTD SVG 20010904//EN"
 "http://www.w3.org/TR/2001/REC-SVG-20010904/DTD/svg10.dtd">
<svg version="1.0" xmlns="http://www.w3.org/2000/svg"
 width="512.000000pt" height="512.000000pt" viewBox="0 0 512.000000 512.000000"
 preserveAspectRatio="xMidYMid meet">

<g transform="translate(0.000000,512.000000) scale(0.100000,-0.100000)"
fill="#000000" stroke="none">
<path d="M2195 4930 c-72 -10 -145 -51 -201 -113 -64 -70 -89 -137 -89 -242 0
-138 13 -157 324 -464 146 -144 276 -269 287 -277 15 -10 28 -12 45 -5 13 5
146 132 295 283 317 319 319 323 319 468 0 82 -4 103 -27 153 -58 124 -175
198 -314 198 -99 0 -140 -14 -224 -78 l-72 -55 -32 30 c-52 50 -126 91 -175
97 -25 3 -55 7 -66 9 -11 2 -43 0 -70 -4z m128 -132 c27 -8 67 -37 119 -85 46
-44 86 -73 99 -73 13 0 49 26 88 63 76 71 126 98 193 105 87 8 184 -55 218
-143 19 -48 15 -137 -8 -181 -11 -21 -126 -144 -254 -271 l-233 -233 -242 243
c-159 158 -248 255 -258 279 -32 78 -13 170 48 235 64 67 142 87 230 61z"/>
<path d="M900 3674 c-371 -65 -478 -87 -487 -101 -10 -13 -13 -107 -13 -395 0
-208 -2 -378 -4 -378 -2 0 -32 7 -66 16 -103 26 -187 -1 -259 -82 -77 -88 -88
-191 -30 -293 95 -167 330 -176 436 -17 18 26 37 64 43 84 6 22 10 172 10 365
0 180 2 327 4 327 3 0 186 31 408 70 222 38 409 70 416 70 9 0 12 -44 12 -186
l0 -186 -27 7 c-16 3 -58 9 -94 12 -85 7 -153 -21 -209 -84 -113 -129 -79
-316 72 -398 132 -72 294 -13 359 129 17 38 19 77 19 567 0 497 -1 527 -18
542 -11 11 -34 17 -58 16 -21 -1 -253 -39 -514 -85z m470 -129 c0 -45 -4 -75
-10 -75 -6 0 -192 -31 -414 -70 -221 -38 -406 -70 -409 -70 -6 0 -10 150 -4
150 1 1 178 32 392 69 215 38 402 70 418 70 l27 1 0 -75z m-67 -697 c29 -15
57 -70 57 -113 0 -82 -72 -144 -148 -130 -50 9 -77 30 -97 75 -52 115 72 227
188 168z m-958 -174 c32 -21 58 -89 50 -131 -25 -133 -220 -144 -255 -13 -32
118 101 212 205 144z"/>
<path d="M4804 3570 c-123 -32 -209 -82 -304 -179 -87 -87 -143 -175 -171
-268 -7 -24 -14 -43 -17 -43 -2 0 -21 13 -41 29 -52 41 -168 97 -238 115 -125
33 -299 17 -420 -39 -75 -34 -85 -54 -73 -147 18 -145 71 -257 171 -363 183
-193 452 -247 707 -141 31 13 85 26 119 30 127 12 305 104 395 204 176 194
227 470 131 709 -41 102 -53 113 -126 112 -34 0 -94 -9 -133 -19z m155 -185
c75 -217 -17 -479 -214 -610 -56 -37 -162 -82 -171 -72 -3 3 40 84 95 181 56
96 101 181 101 188 0 30 -31 58 -65 58 -40 0 -39 2 -160 -207 -48 -84 -91
-153 -95 -153 -12 0 -22 86 -21 169 1 158 77 310 200 405 94 72 206 118 276
113 28 -2 32 -7 54 -72z m-917 -296 c120 -40 258 -159 258 -223 0 -17 4 -48 9
-68 5 -21 5 -38 1 -38 -4 0 -69 36 -143 80 -75 44 -145 80 -156 80 -30 0 -61
-35 -61 -69 0 -35 4 -39 193 -146 155 -89 156 -93 21 -94 -144 -2 -266 51
-364 156 -76 81 -114 158 -134 270 -5 30 -3 33 37 48 102 39 231 41 339 4z"/>
<path d="M2107 3446 c-55 -20 -100 -58 -138 -118 l-34 -53 0 -510 c0 -507 0
-510 23 -577 67 -194 246 -356 443 -403 82 -19 209 -19 284 0 143 36 290 140
371 263 21 31 52 95 68 142 l31 85 3 572 c3 566 3 572 -17 592 -21 21 -30 21
-508 21 -382 -1 -496 -4 -526 -14z m923 -261 l0 -145 -485 0 -485 0 0 96 c0
81 3 102 21 130 39 64 29 63 512 64 l437 0 0 -145z m-2 -582 c-4 -298 -6 -322
-26 -377 -59 -159 -172 -264 -337 -311 -78 -23 -217 -16 -295 14 -124 49 -232
156 -281 278 -23 56 -24 69 -27 386 l-3 327 486 0 486 0 -3 -317z"/>
<path d="M1849 1664 c-374 -67 -686 -357 -786 -729 -25 -96 -27 -113 -31 -400
-4 -289 -3 -302 16 -325 l20 -25 1449 -3 c1017 -2 1459 0 1485 8 26 7 40 18
44 34 3 13 4 162 2 332 -4 300 -5 312 -30 394 -54 174 -122 292 -242 417 -187
198 -410 298 -687 310 l-137 6 -40 -39 c-21 -21 -113 -117 -202 -212 -89 -95
-166 -172 -170 -170 -4 2 -56 55 -116 118 -59 63 -147 157 -196 208 l-89 92
-107 -1 c-59 0 -141 -7 -183 -15z m430 -316 l201 -213 0 -412 0 -413 -335 0
-335 0 0 270 0 271 -25 24 c-29 30 -45 31 -79 4 l-26 -20 0 -275 0 -274 -261
0 -261 0 5 263 c4 233 6 270 26 337 71 240 228 434 441 545 127 65 233 91 427
104 16 1 72 -52 222 -211z m981 180 c310 -74 556 -316 641 -633 19 -69 22
-115 26 -333 l5 -252 -261 0 -261 0 0 270 0 271 -26 25 c-19 20 -31 24 -52 19
-52 -13 -52 -9 -54 -304 l-3 -276 -332 -3 -333 -2 0 416 0 416 161 172 c89 94
178 187 199 208 l37 36 84 -5 c46 -2 122 -14 169 -25z"/>
<path d="M2123 545 c-28 -12 -33 -19 -33 -49 0 -53 26 -66 135 -66 49 0 95 4
101 8 39 25 36 90 -5 111 -28 16 -160 13 -198 -4z"/>
<path d="M2760 967 c-19 -9 -26 -22 -28 -50 -3 -35 -1 -39 32 -52 42 -18 168
-20 199 -4 43 23 50 66 17 99 -17 17 -33 20 -107 20 -51 0 -99 -6 -113 -13z"/>
</g>
</svg>
