<?xml version="1.0" standalone="no"?>
<!DOCTYPE svg PUBLIC "-//W3C//DTD SVG 20010904//EN"
 "http://www.w3.org/TR/2001/REC-SVG-20010904/DTD/svg10.dtd">
<svg version="1.0" xmlns="http://www.w3.org/2000/svg"
 width="512.000000pt" height="512.000000pt" viewBox="0 0 512.000000 512.000000"
 preserveAspectRatio="xMidYMid meet">

<g transform="translate(0.000000,512.000000) scale(0.100000,-0.100000)"
fill="#000000" stroke="none">
<path d="M439 4908 c-56 -15 -94 -62 -122 -153 l-25 -80 -95 -5 c-76 -4 -101
-9 -124 -26 -62 -46 -84 -135 -49 -202 9 -18 47 -55 85 -83 l68 -51 -23 -77
c-28 -88 -30 -140 -9 -181 31 -60 112 -98 174 -80 18 5 60 30 94 55 34 25 67
43 74 41 7 -3 37 -24 67 -46 68 -51 107 -63 160 -49 70 19 116 76 116 146 0
21 -11 72 -24 114 l-23 77 69 52 c111 82 134 165 71 249 -35 46 -78 61 -172
61 l-80 0 -26 84 c-21 69 -33 91 -65 120 -22 20 -49 36 -59 36 -11 0 -25 2
-33 4 -7 2 -29 0 -49 -6z m82 -265 l35 -118 125 -5 124 -5 -90 -69 c-49 -38
-94 -73 -98 -77 -5 -4 7 -60 27 -125 20 -64 34 -119 32 -122 -3 -2 -46 28 -96
67 -51 39 -96 71 -100 71 -4 0 -49 -32 -100 -71 -50 -39 -94 -69 -96 -66 -2 2
12 55 31 117 20 62 34 117 33 121 -2 4 -46 40 -98 81 l-95 73 124 5 125 5 35
118 c19 64 38 117 41 117 3 0 22 -53 41 -117z"/>
<path d="M2456 4909 c-49 -12 -89 -40 -116 -84 -20 -33 -23 -34 -70 -28 -26 3
-64 3 -84 -1 -47 -9 -166 -110 -202 -172 -24 -40 -26 -52 -22 -115 5 -69 5
-70 -23 -84 -36 -19 -75 -71 -86 -115 -7 -29 -17 -39 -62 -61 -89 -42 -111
-85 -68 -134 24 -28 44 -32 92 -21 29 6 32 4 49 -35 11 -25 35 -53 61 -71 l42
-30 -5 -68 c-4 -61 -2 -74 21 -112 29 -50 119 -138 165 -162 35 -18 90 -23
139 -12 28 7 33 4 47 -23 38 -72 133 -108 262 -98 91 7 139 29 177 83 l29 42
58 -5 c85 -8 117 7 208 100 88 91 99 117 89 207 -6 47 -5 49 32 73 23 16 48
45 63 75 22 44 27 48 48 40 89 -33 157 58 90 120 -10 10 -42 26 -70 36 -39 14
-50 23 -50 40 0 33 -42 98 -80 124 l-35 23 4 70 c3 59 0 75 -22 112 -30 50
-119 137 -167 162 -35 18 -109 24 -147 11 -18 -6 -25 -1 -37 23 -22 41 -73 78
-126 90 -54 13 -150 12 -204 0z m198 -165 c3 -9 6 -39 6 -68 l0 -52 65 -26 64
-25 38 39 c20 21 46 38 57 38 27 0 126 -98 126 -125 0 -12 -17 -38 -38 -58
l-39 -38 25 -64 26 -65 52 0 c84 0 84 0 84 -100 0 -100 0 -100 -84 -100 l-52
0 -26 -65 -25 -64 39 -38 c21 -20 38 -46 38 -57 0 -27 -98 -126 -125 -126 -12
0 -38 17 -58 38 l-38 39 -64 -25 -65 -26 0 -52 c0 -84 0 -84 -100 -84 -100 0
-100 0 -100 84 l0 52 -65 26 -64 25 -38 -39 c-20 -21 -46 -38 -57 -38 -27 0
-126 98 -126 125 0 12 18 38 39 59 l39 38 -24 52 c-13 28 -24 57 -24 64 0 8
-18 12 -54 12 -86 0 -86 0 -86 100 0 100 0 100 84 100 l52 0 26 65 25 64 -39
38 c-21 20 -38 46 -38 57 0 27 98 126 125 126 12 0 38 -17 58 -38 l38 -39 64
25 65 26 0 52 c0 84 0 84 100 84 71 0 89 -3 94 -16z"/>
<path d="M2503 4490 c-229 -46 -315 -329 -151 -497 182 -186 501 -54 501 207
0 184 -170 326 -350 290z m129 -167 c53 -26 83 -99 66 -160 -29 -105 -161
-141 -239 -64 -75 76 -46 200 56 236 42 14 72 11 117 -12z"/>
<path d="M4599 4908 c-55 -14 -93 -62 -123 -155 l-27 -81 -94 -4 c-76 -2 -99
-7 -122 -24 -62 -46 -84 -135 -49 -202 9 -18 47 -55 85 -83 l68 -51 -23 -77
c-13 -42 -24 -94 -24 -116 0 -94 99 -170 190 -145 20 5 63 30 95 55 32 25 64
44 72 41 7 -3 37 -24 67 -46 68 -51 107 -63 160 -49 70 19 116 76 116 146 0
21 -9 67 -20 103 -11 36 -20 72 -20 80 1 8 30 37 66 63 106 79 129 163 67 246
-35 46 -78 61 -172 61 l-80 0 -26 84 c-21 69 -33 91 -65 120 -22 20 -49 36
-59 36 -11 0 -25 2 -33 4 -7 2 -29 0 -49 -6z m82 -265 l35 -118 125 -5 124 -5
-90 -69 c-49 -38 -94 -73 -98 -77 -5 -4 7 -60 27 -125 20 -64 34 -119 32 -122
-3 -2 -46 28 -96 67 -51 39 -96 71 -100 71 -4 0 -49 -32 -100 -71 -50 -39 -94
-69 -96 -66 -2 2 12 55 31 117 20 62 34 117 33 121 -2 4 -46 40 -98 81 l-95
73 124 5 125 5 35 118 c19 64 38 117 41 117 3 0 22 -53 41 -117z"/>
<path d="M1396 4039 c-80 -53 -116 -90 -116 -120 0 -30 43 -71 73 -71 37 0
195 105 207 137 12 31 -1 68 -32 89 -34 24 -50 20 -132 -35z"/>
<path d="M3593 4078 c-30 -15 -49 -62 -35 -92 15 -34 167 -137 203 -138 58 -2
95 73 58 118 -21 25 -154 112 -180 118 -13 3 -34 0 -46 -6z"/>
<path d="M3973 3779 c-25 -9 -53 -47 -53 -71 0 -16 59 -93 127 -165 36 -38 69
-42 107 -12 19 15 26 30 26 55 0 28 -12 48 -69 113 -70 79 -98 95 -138 80z"/>
<path d="M1073 3765 c-12 -9 -47 -45 -78 -81 -43 -52 -55 -72 -55 -100 0 -75
78 -100 132 -41 127 135 144 175 92 216 -32 25 -61 27 -91 6z"/>
<path d="M4239 3381 c-19 -15 -23 -28 -22 -62 2 -34 -4 -49 -26 -75 -16 -18
-30 -37 -32 -42 -3 -7 -18 -7 -49 0 -74 17 -119 -2 -205 -83 -94 -89 -109
-121 -103 -211 5 -67 5 -69 -23 -83 -70 -37 -106 -134 -96 -261 7 -91 29 -139
82 -176 l42 -30 -5 -67 c-3 -49 0 -75 11 -98 25 -48 115 -141 164 -170 39 -23
52 -25 114 -21 69 5 70 5 84 -23 34 -64 113 -99 225 -99 112 0 191 35 225 99
14 28 15 28 84 23 62 -4 75 -2 114 21 49 29 139 122 164 170 11 23 14 49 11
98 l-5 67 42 30 c53 37 75 85 82 176 10 127 -26 224 -96 261 -28 14 -28 15
-23 84 4 62 2 75 -21 113 -30 51 -119 138 -167 163 -35 18 -109 24 -147 11
-18 -6 -25 -1 -37 22 -34 65 -105 102 -198 102 -42 0 -48 3 -67 34 -32 51 -80
62 -122 27z m255 -237 c3 -9 6 -39 6 -68 l0 -52 65 -26 64 -25 38 39 c20 21
46 38 57 38 27 0 126 -98 126 -125 0 -12 -18 -38 -39 -59 l-39 -38 24 -52 c13
-28 24 -57 24 -63 0 -9 19 -13 59 -13 80 0 91 -12 91 -100 0 -88 -11 -100 -91
-100 -40 0 -59 -4 -59 -12 0 -7 -11 -36 -24 -64 l-24 -52 39 -38 c21 -21 39
-47 39 -58 0 -27 -98 -126 -125 -126 -12 0 -38 18 -59 39 l-38 39 -52 -24
c-28 -13 -57 -24 -63 -24 -9 0 -13 -19 -13 -59 0 -80 -12 -91 -100 -91 -87 0
-100 11 -100 89 l0 57 -65 26 -64 25 -38 -39 c-20 -21 -46 -38 -57 -38 -27 0
-126 98 -126 125 0 12 18 38 39 59 l39 38 -24 52 c-13 28 -24 57 -24 64 0 8
-18 12 -58 12 -32 0 -63 5 -70 12 -7 7 -12 44 -12 94 0 93 1 94 84 94 l52 0
26 65 25 64 -39 38 c-21 20 -38 46 -38 57 0 27 98 126 125 126 12 0 38 -18 59
-39 l38 -39 52 24 c28 13 57 24 64 24 8 0 12 18 12 54 0 86 0 86 100 86 71 0
89 -3 94 -16z"/>
<path d="M4343 2890 c-229 -46 -315 -329 -151 -497 182 -186 501 -54 501 207
0 184 -170 326 -350 290z m129 -167 c53 -26 83 -99 66 -160 -29 -105 -161
-141 -239 -64 -75 76 -46 200 56 236 42 14 72 11 117 -12z"/>
<path d="M792 3380 c-12 -5 -27 -21 -34 -35 -9 -21 -18 -25 -52 -25 -98 -1
-180 -39 -211 -99 -14 -28 -16 -28 -83 -23 -50 3 -76 0 -99 -11 -48 -25 -141
-115 -170 -164 -23 -39 -25 -52 -21 -114 5 -69 5 -70 -23 -84 -63 -33 -99
-114 -99 -225 0 -111 36 -192 99 -225 28 -14 28 -15 23 -84 -4 -62 -2 -75 21
-113 30 -51 119 -138 167 -163 35 -18 109 -24 147 -11 18 6 25 1 37 -23 38
-72 134 -108 262 -98 91 7 139 29 177 83 l29 42 58 -5 c85 -8 117 7 208 100
88 91 99 117 89 207 -6 47 -5 49 33 74 65 43 85 92 85 216 0 125 -16 167 -80
212 l-42 30 5 67 c3 49 0 75 -11 98 -25 48 -115 141 -164 170 -39 23 -52 25
-114 21 -67 -5 -70 -4 -83 21 -8 14 -23 34 -34 44 -11 11 -18 25 -15 33 10 26
-7 64 -37 79 -33 17 -36 17 -68 5z m22 -236 c3 -9 6 -39 6 -68 l0 -52 65 -26
64 -25 38 39 c20 21 46 38 57 38 27 0 126 -98 126 -125 0 -12 -17 -38 -38 -58
l-39 -38 25 -64 26 -65 52 0 c84 0 84 0 84 -100 0 -100 0 -100 -84 -100 l-52
0 -26 -65 -25 -64 39 -38 c21 -20 38 -46 38 -57 0 -27 -98 -126 -125 -126 -12
0 -38 17 -58 38 l-38 39 -64 -25 -65 -26 0 -52 c0 -84 0 -84 -100 -84 -100 0
-100 0 -100 84 l0 52 -65 26 -64 25 -38 -39 c-20 -21 -46 -38 -57 -38 -27 0
-126 98 -126 125 0 12 17 38 38 58 l39 38 -25 64 -26 65 -52 0 c-84 0 -84 0
-84 100 0 100 0 100 84 100 l52 0 26 65 25 64 -39 38 c-21 20 -38 46 -38 57 0
27 98 126 125 126 12 0 38 -18 59 -39 l38 -39 52 24 c28 13 57 24 64 24 8 0
12 18 12 54 0 86 0 86 100 86 71 0 89 -3 94 -16z"/>
<path d="M663 2890 c-229 -46 -315 -329 -151 -497 182 -186 501 -54 501 207 0
184 -170 326 -350 290z m129 -167 c53 -26 83 -99 66 -160 -21 -75 -101 -122
-175 -101 -136 37 -142 226 -8 273 42 14 72 11 117 -12z"/>
<path d="M2292 3230 c-236 -25 -401 -86 -497 -185 -28 -28 -59 -72 -68 -96
-35 -93 -69 -336 -74 -529 -5 -168 -4 -192 16 -263 26 -95 45 -134 105 -214
33 -43 46 -70 46 -94 0 -48 29 -155 60 -226 35 -76 79 -141 146 -214 45 -49
52 -62 58 -113 8 -72 -6 -129 -39 -150 -14 -9 -74 -83 -135 -164 -65 -87 -140
-175 -184 -215 l-75 -67 -388 -121 c-213 -66 -399 -127 -411 -136 -46 -29
-136 -258 -156 -396 l-7 -48 77 3 78 3 12 65 c14 76 70 235 87 248 7 4 185 62
397 127 l385 119 55 51 c30 28 63 57 72 64 15 11 37 -6 186 -147 174 -165 213
-190 273 -178 16 3 29 3 29 1 0 -3 -15 -36 -34 -73 -40 -79 -56 -134 -65 -219
l-7 -63 77 0 76 0 7 63 c4 42 18 85 43 137 l38 75 85 0 85 0 38 -76 c27 -54
40 -94 44 -138 l6 -61 78 0 79 0 -6 48 c-10 84 -33 160 -69 231 -19 39 -35 72
-35 75 0 2 17 2 38 -1 58 -8 90 14 257 171 83 78 158 147 167 155 16 12 25 6
82 -49 l65 -62 393 -122 393 -123 27 -56 c24 -48 54 -146 73 -239 5 -28 7 -28
81 -28 l75 0 -7 47 c-18 128 -102 350 -148 391 -12 11 -185 70 -415 141 l-393
121 -76 71 c-41 38 -118 127 -170 197 -52 70 -111 144 -131 165 l-36 38 0 98
0 97 63 70 c105 113 166 264 187 454 7 57 13 71 51 115 50 59 88 130 105 198
30 121 -18 633 -71 754 -54 124 -218 216 -455 259 -106 18 -515 27 -643 14z
m611 -166 c187 -29 300 -84 343 -167 8 -15 27 -92 41 -170 22 -118 27 -172 27
-322 1 -137 -2 -187 -13 -210 -14 -29 -15 -26 -22 70 -15 197 -48 310 -105
354 -41 32 -68 26 -129 -29 -118 -107 -233 -141 -477 -141 -176 0 -213 3 -293
28 -80 25 -141 60 -200 113 -63 57 -93 63 -130 26 -54 -54 -89 -167 -109 -351
l-11 -110 -14 62 c-26 120 7 542 52 657 27 71 103 127 217 160 109 31 168 39
360 45 240 8 337 4 463 -15z m-857 -645 c12 -20 167 -86 239 -103 100 -22 291
-30 420 -18 130 13 246 47 329 97 32 19 62 35 66 35 12 0 21 -89 31 -290 5
-102 12 -208 15 -236 13 -113 -60 -290 -160 -389 -106 -106 -249 -225 -300
-250 -71 -35 -181 -35 -252 0 -63 31 -300 238 -347 302 -78 108 -124 242 -111
323 4 25 8 124 9 220 2 238 27 364 61 309z m865 -1265 l15 -66 -70 -52 c-39
-29 -122 -89 -183 -135 l-113 -83 -180 133 c-135 100 -179 137 -174 149 4 8
13 35 19 60 7 25 18 44 23 43 6 -1 36 -21 68 -43 73 -51 146 -73 244 -73 103
0 173 23 256 82 38 27 71 50 74 50 3 1 12 -29 21 -65z m-636 -314 c91 -67 165
-126 165 -132 0 -13 -148 -198 -158 -198 -4 1 -76 67 -161 148 l-154 148 59
82 c33 45 64 79 71 77 7 -2 87 -59 178 -125z m819 47 l59 -81 -154 -148 c-85
-81 -157 -147 -161 -148 -4 0 -44 45 -89 101 -76 94 -80 101 -63 114 11 7 89
65 174 129 85 63 160 115 165 115 6 0 37 -37 69 -82z m-488 -351 c30 -46 34
-58 24 -75 -9 -18 -20 -21 -70 -21 -50 0 -61 3 -70 21 -10 17 -6 29 24 75 20
30 41 54 46 54 5 0 26 -24 46 -54z"/>
<path d="M439 1508 c-56 -15 -94 -62 -122 -153 l-25 -80 -95 -5 c-76 -4 -101
-9 -124 -26 -62 -46 -84 -135 -49 -202 9 -18 47 -55 85 -83 l68 -51 -23 -77
c-13 -42 -24 -94 -24 -116 0 -94 99 -170 190 -145 20 5 63 30 95 55 32 25 64
44 72 41 7 -3 37 -24 67 -46 68 -51 107 -63 160 -49 70 19 116 76 116 146 0
21 -9 67 -20 103 -11 36 -20 72 -20 80 1 8 30 37 66 63 106 79 129 163 67 246
-35 46 -78 61 -172 61 l-80 0 -26 84 c-21 69 -33 91 -65 120 -22 20 -49 36
-59 36 -11 0 -25 2 -33 4 -7 2 -29 0 -49 -6z m82 -265 l35 -118 125 -5 124 -5
-90 -69 c-49 -38 -94 -73 -98 -77 -5 -4 7 -60 27 -125 20 -64 34 -119 32 -122
-3 -2 -46 28 -96 67 -51 39 -96 71 -100 71 -4 0 -49 -32 -100 -71 -50 -39 -94
-69 -96 -66 -2 2 12 55 31 117 20 62 34 117 33 121 -2 4 -46 40 -98 81 l-95
73 124 5 125 5 35 118 c19 64 38 117 41 117 3 0 22 -53 41 -117z"/>
<path d="M4599 1508 c-55 -14 -93 -62 -123 -155 l-27 -81 -94 -4 c-76 -2 -99
-7 -122 -24 -62 -46 -84 -135 -49 -202 9 -18 47 -55 85 -83 l68 -51 -23 -77
c-13 -42 -24 -94 -24 -116 0 -94 99 -170 190 -145 20 5 63 30 95 55 32 25 64
44 72 41 7 -3 37 -24 67 -46 30 -22 69 -45 87 -50 41 -12 105 3 137 33 56 52
65 113 32 219 -11 34 -20 70 -19 78 0 8 29 36 64 63 82 60 99 86 99 153 1 59
-18 94 -74 132 -28 19 -46 22 -121 22 l-88 0 -26 84 c-21 69 -33 91 -65 120
-22 20 -49 36 -59 36 -11 0 -25 2 -33 4 -7 2 -29 0 -49 -6z m82 -265 l35 -118
125 -5 124 -5 -95 -73 c-52 -41 -96 -77 -98 -81 -1 -4 13 -59 33 -121 19 -62
33 -115 31 -117 -2 -3 -46 27 -96 66 -51 39 -96 71 -100 71 -4 0 -49 -32 -100
-71 -50 -39 -94 -69 -96 -66 -2 2 12 55 31 117 20 62 34 117 33 121 -2 4 -46
40 -98 81 l-95 73 124 5 125 5 35 118 c19 64 38 117 41 117 3 0 22 -53 41
-117z"/>
</g>
</svg>
