<?xml version="1.0" standalone="no"?>
<!DOCTYPE svg PUBLIC "-//W3C//DTD SVG 20010904//EN"
 "http://www.w3.org/TR/2001/REC-SVG-20010904/DTD/svg10.dtd">
<svg version="1.0" xmlns="http://www.w3.org/2000/svg"
 width="512.000000pt" height="512.000000pt" viewBox="0 0 512.000000 512.000000"
 preserveAspectRatio="xMidYMid meet">

<g transform="translate(0.000000,512.000000) scale(0.100000,-0.100000)"
fill="#000000" stroke="none">
<path d="M1900 5035 c-632 -82 -1180 -423 -1536 -956 -218 -327 -353 -753
-354 -1116 0 -104 1 -113 22 -127 33 -24 73 -20 96 8 15 20 20 48 25 148 50
957 756 1740 1707 1892 209 34 467 30 679 -10 747 -142 1347 -685 1567 -1418
13 -44 24 -81 24 -83 0 -2 -78 -3 -174 -3 -160 0 -175 -2 -200 -21 -36 -28
-34 -66 7 -118 112 -143 436 -511 457 -519 15 -5 35 -5 50 0 21 8 344 375 458
519 37 48 40 77 13 110 -19 24 -23 24 -241 29 l-222 5 -34 117 c-236 823 -949
1431 -1807 1543 -139 18 -401 18 -537 0z"/>
<path d="M2051 4299 c-203 -26 -387 -122 -536 -281 -93 -98 -152 -197 -194
-323 -45 -136 -51 -211 -51 -631 l0 -384 -102 0 c-57 0 -134 -5 -172 -10 -153
-22 -284 -121 -354 -267 l-37 -78 0 -950 0 -950 23 -57 c54 -133 165 -237 299
-278 64 -20 92 -20 1242 -20 1294 0 1224 -3 1337 61 107 61 200 193 224 318 5
30 10 123 10 207 l0 154 -585 0 -585 0 -281 -272 c-154 -150 -290 -278 -302
-285 -25 -14 -53 -8 -79 15 -16 14 -18 40 -18 278 l0 262 -197 4 c-198 3 -198
3 -263 34 -83 39 -145 101 -184 184 l-31 65 -3 443 c-3 386 -1 451 13 500 42
146 156 247 306 272 41 6 444 10 1127 10 974 0 1062 1 1062 16 0 33 -64 145
-110 193 -104 108 -194 142 -402 149 l-148 5 0 418 c0 327 -3 433 -15 486 -58
274 -228 498 -469 620 -100 50 -167 72 -276 88 -103 16 -151 17 -249 4z m323
-463 c122 -59 225 -187 255 -317 6 -26 11 -210 11 -441 l0 -398 -475 0 -475 0
0 363 c0 199 5 394 10 432 46 318 385 500 674 361z"/>
<path d="M1481 2144 c-65 -33 -106 -87 -121 -159 -7 -35 -10 -189 -8 -457 3
-391 4 -404 25 -443 25 -47 64 -85 113 -111 31 -17 64 -19 267 -22 218 -3 232
-4 250 -24 16 -18 19 -44 23 -228 l5 -209 234 227 234 227 1221 5 1221 5 41
22 c51 27 98 80 115 130 11 30 14 131 14 463 l0 425 -23 44 c-29 54 -65 88
-117 112 -38 18 -110 19 -1741 19 l-1700 0 -53 -26z m835 -208 c27 -22 28 -29
34 -133 l5 -110 95 53 c97 55 116 58 153 26 17 -15 23 -67 9 -89 -4 -6 -49
-36 -101 -66 l-93 -55 78 -45 c44 -25 89 -53 102 -62 46 -33 16 -125 -40 -125
-13 0 -63 23 -112 50 -49 28 -90 50 -91 50 -2 0 -4 -49 -7 -109 -3 -90 -7
-113 -22 -130 -28 -31 -79 -28 -105 5 -18 23 -21 41 -21 130 0 57 -3 104 -7
104 -5 0 -46 -23 -93 -50 -47 -28 -95 -50 -108 -50 -13 0 -34 11 -47 25 -50
49 -28 85 90 152 47 26 85 51 85 55 0 3 -41 30 -91 58 -55 32 -95 62 -102 77
-16 35 1 74 40 90 34 13 55 6 186 -71 l47 -28 0 107 c0 113 8 141 43 155 34
14 44 12 73 -14z m948 13 c35 -16 40 -31 46 -151 l5 -107 88 51 c113 65 153
65 178 1 15 -40 -8 -67 -108 -125 l-95 -55 91 -53 c104 -60 114 -70 114 -112
0 -35 -32 -68 -67 -68 -12 0 -61 23 -109 50 -48 28 -89 50 -91 50 -2 0 -6 -49
-8 -109 -2 -90 -6 -113 -22 -130 -28 -31 -79 -28 -105 5 -18 23 -21 41 -21
130 0 57 -2 104 -5 104 -3 0 -45 -22 -93 -50 -48 -27 -98 -50 -110 -50 -27 0
-72 42 -72 67 0 33 28 59 120 113 l92 52 -29 17 c-15 10 -59 35 -96 55 -77 43
-95 72 -77 117 7 16 24 32 41 38 30 10 58 -1 182 -73 l47 -28 0 100 c0 113 9
148 42 162 31 12 33 12 62 -1z m986 -15 c11 -11 16 -44 18 -130 l4 -115 46 27
c123 72 151 83 181 73 17 -6 34 -22 41 -38 20 -49 1 -74 -105 -134 l-97 -55
91 -52 c92 -52 121 -79 121 -113 0 -25 -45 -67 -72 -67 -12 0 -62 23 -110 50
-48 28 -90 50 -93 50 -3 0 -5 -47 -5 -104 0 -89 -3 -107 -21 -130 -26 -33 -77
-36 -105 -5 -16 17 -20 40 -22 130 -2 60 -6 109 -8 109 -2 0 -44 -22 -92 -50
-48 -27 -97 -50 -109 -50 -35 0 -66 33 -66 70 0 40 18 57 128 119 l78 43 -96
56 c-112 64 -134 95 -101 139 40 53 72 47 227 -46 l37 -23 0 101 c0 107 10
143 44 160 25 12 65 5 86 -15z"/>
</g>
</svg>
