<?xml version="1.0" standalone="no"?>
<!DOCTYPE svg PUBLIC "-//W3C//DTD SVG 20010904//EN"
 "http://www.w3.org/TR/2001/REC-SVG-20010904/DTD/svg10.dtd">
<svg version="1.0" xmlns="http://www.w3.org/2000/svg"
 width="720.000000pt" height="720.000000pt" viewBox="0 0 720.000000 720.000000"
 preserveAspectRatio="xMidYMid meet">

<g transform="translate(0.000000,720.000000) scale(0.100000,-0.100000)"
fill="#000000" stroke="none">
<path d="M2360 7184 c-58 -7 -149 -23 -204 -34 -54 -12 -105 -19 -114 -15 -9
3 -13 3 -9 -1 8 -8 -204 -77 -240 -78 -11 -1 -19 -5 -15 -10 3 -5 -5 -7 -16
-4 -12 4 -20 2 -17 -2 7 -11 -62 -33 -76 -24 -8 5 -9 3 -4 -6 6 -10 4 -12 -9
-7 -11 5 -15 3 -10 -5 5 -8 2 -9 -10 -5 -9 4 -15 3 -12 -2 7 -11 -53 -33 -67
-24 -6 4 -7 1 -2 -7 6 -10 4 -12 -9 -7 -11 5 -15 3 -10 -5 5 -8 2 -9 -10 -5
-11 5 -15 3 -10 -5 5 -8 2 -9 -10 -5 -11 5 -15 3 -10 -5 5 -8 2 -9 -10 -5 -11
5 -15 3 -10 -5 5 -8 2 -9 -10 -5 -11 5 -15 3 -10 -5 5 -8 2 -9 -10 -5 -11 5
-15 3 -10 -5 5 -8 2 -9 -10 -5 -11 5 -15 3 -10 -5 5 -8 1 -9 -12 -4 -10 4 -15
4 -11 0 10 -10 -31 -36 -45 -28 -7 5 -8 3 -3 -6 6 -10 4 -12 -11 -6 -10 4 -15
4 -11 0 10 -10 -31 -37 -43 -29 -6 4 -9 1 -8 -7 2 -7 -5 -12 -15 -11 -10 0
-16 -2 -13 -5 9 -8 -32 -34 -43 -27 -5 3 -13 0 -17 -6 -5 -8 -3 -9 6 -4 9 6
11 4 6 -4 -5 -7 -14 -10 -22 -7 -7 3 -16 0 -20 -6 -5 -7 -2 -8 7 -3 12 8 12 6
0 -9 -8 -9 -20 -15 -27 -12 -7 3 -16 0 -20 -6 -5 -7 -2 -8 6 -3 9 6 11 4 6 -4
-5 -7 -14 -10 -21 -7 -8 3 -19 -3 -27 -12 -12 -16 -11 -16 7 -2 19 14 19 14 6
-3 -8 -10 -20 -16 -27 -13 -7 3 -18 -3 -26 -12 -12 -16 -11 -16 7 -3 19 14 19
14 4 -3 -9 -9 -25 -19 -35 -20 -10 -2 -19 -8 -19 -15 0 -13 -26 -32 -36 -26
-3 3 -17 -8 -30 -23 l-24 -27 30 25 30 24 -26 -27 c-14 -16 -33 -29 -43 -31
-9 -1 -58 -43 -107 -92 -97 -95 -191 -203 -148 -169 14 11 5 0 -21 -25 -25
-25 -38 -40 -30 -35 9 6 0 -6 -20 -25 -20 -19 -27 -28 -16 -20 14 10 11 4 -8
-22 -16 -21 -31 -38 -33 -38 -3 0 1 8 8 17 9 11 10 14 2 9 -7 -4 -18 -16 -24
-28 -9 -16 -8 -19 3 -12 19 11 -8 -24 -41 -55 -14 -13 -20 -20 -12 -16 9 5 8
-1 -4 -19 -16 -24 -34 -39 -20 -16 3 6 4 10 1 10 -3 0 -10 -10 -17 -21 -8 -16
-8 -20 1 -14 9 6 9 2 1 -14 -7 -11 -14 -21 -17 -21 -3 0 -2 5 2 12 4 7 3 8 -4
4 -6 -4 -9 -12 -6 -19 2 -7 -3 -21 -12 -32 -8 -11 -12 -14 -8 -6 4 9 3 12 -4
7 -6 -4 -9 -12 -6 -19 2 -7 -3 -21 -12 -32 -8 -11 -12 -14 -8 -6 5 10 3 12 -5
7 -7 -4 -10 -13 -8 -19 2 -7 -3 -18 -12 -25 -9 -8 -10 -11 -3 -7 10 5 10 1 1
-19 -7 -14 -16 -23 -20 -20 -5 3 -6 -3 -2 -12 4 -12 3 -15 -5 -10 -8 5 -10 1
-5 -10 4 -12 3 -15 -5 -10 -8 5 -10 1 -5 -10 4 -12 3 -15 -5 -10 -8 5 -10 1
-5 -10 4 -12 3 -15 -5 -10 -8 5 -10 1 -5 -10 5 -13 3 -15 -7 -9 -8 5 -11 4 -7
-3 9 -13 -2 -44 -13 -37 -4 3 -11 -2 -14 -11 -4 -10 -2 -13 6 -8 8 5 9 2 5
-10 -4 -10 -7 -20 -7 -22 0 -3 -4 -3 -9 0 -5 3 -9 0 -8 -7 1 -34 -4 -48 -15
-41 -7 4 -8 3 -4 -5 10 -16 -3 -53 -16 -45 -7 4 -8 2 -4 -4 10 -16 -45 -182
-57 -175 -6 3 -7 1 -3 -6 10 -16 -15 -112 -27 -104 -6 3 -7 1 -3 -5 10 -17
-14 -133 -27 -125 -6 3 -7 1 -3 -6 9 -14 -15 -192 -24 -186 -4 2 -7 -151 -7
-340 0 -189 4 -342 8 -339 5 3 9 -8 9 -25 0 -16 12 -87 27 -158 14 -70 27
-140 27 -155 1 -14 3 -24 6 -22 7 7 50 -150 45 -164 -3 -8 0 -10 7 -6 7 5 9 0
6 -14 -4 -12 -2 -20 3 -16 8 5 13 -12 12 -43 -1 -7 4 -10 10 -6 6 4 8 -2 5
-15 -4 -12 -2 -20 2 -17 12 7 23 -32 14 -46 -4 -7 -3 -9 4 -5 13 8 26 -29 16
-45 -5 -8 -3 -9 6 -4 10 6 12 4 7 -9 -5 -11 -3 -15 5 -10 8 5 9 2 5 -10 -4 -9
-3 -14 2 -11 12 7 24 -31 15 -47 -4 -7 -4 -10 1 -6 11 11 48 -51 41 -69 -3 -8
-1 -11 4 -8 9 6 14 -8 11 -27 0 -5 3 -8 9 -8 5 0 14 -10 21 -21 7 -15 8 -19 0
-15 -7 5 -9 1 -5 -9 4 -8 15 -20 26 -26 11 -6 17 -17 14 -25 -3 -9 -1 -12 4
-9 9 6 14 -8 11 -28 -1 -5 2 -6 7 -3 5 3 17 -9 27 -26 13 -22 14 -29 4 -24 -8
4 -3 -2 11 -14 14 -12 18 -19 10 -15 -8 4 -2 -4 14 -17 16 -14 26 -30 22 -36
-3 -6 -1 -14 5 -18 8 -4 9 -3 5 4 -15 25 3 10 20 -16 17 -26 17 -27 -2 -13
-10 8 -3 -1 17 -20 19 -19 44 -45 55 -59 19 -25 19 -25 -1 -10 -12 8 -2 -3 20
-25 23 -22 30 -31 16 -20 -13 11 19 -24 72 -78 53 -53 96 -103 94 -110 -1 -6
3 -11 9 -10 6 1 38 -24 71 -55 33 -31 46 -46 29 -32 l-31 25 29 -32 c16 -18
33 -30 37 -27 4 2 21 -8 37 -23 15 -15 19 -21 8 -13 -21 15 -21 15 -3 -7 11
-12 24 -19 31 -17 7 3 19 -3 27 -13 13 -17 13 -17 -6 -3 -19 14 -19 14 -6 -2
7 -10 17 -16 21 -13 4 2 16 -3 26 -11 10 -9 13 -12 5 -8 -9 5 -12 3 -7 -5 4
-6 11 -9 15 -6 5 2 17 -3 27 -11 10 -9 12 -12 4 -8 -9 4 -12 3 -7 -2 5 -5 16
-9 25 -9 9 0 16 -6 15 -12 -2 -7 0 -12 5 -12 16 3 28 -2 52 -22 14 -11 19 -17
11 -13 -9 4 -12 3 -7 -4 4 -6 13 -9 20 -6 8 3 17 0 22 -7 5 -8 3 -10 -6 -4 -8
5 -11 4 -6 -3 4 -6 14 -8 23 -5 10 4 14 2 10 -4 -4 -6 1 -10 11 -9 9 0 16 -4
15 -11 -2 -7 3 -10 11 -7 8 3 17 0 22 -7 5 -8 3 -10 -6 -4 -8 5 -11 4 -6 -3 4
-6 14 -8 23 -5 11 4 14 3 9 -5 -5 -8 -1 -10 10 -5 12 4 15 3 10 -5 -5 -8 -1
-10 10 -5 13 5 15 3 9 -7 -5 -9 -4 -11 3 -6 14 8 55 -18 45 -28 -4 -4 1 -4 11
0 13 5 17 4 12 -4 -5 -8 -1 -10 10 -5 12 4 15 3 10 -5 -5 -8 -1 -10 10 -5 12
4 15 3 10 -5 -5 -8 -1 -10 10 -5 12 4 15 3 10 -5 -5 -8 -1 -10 10 -5 12 4 15
3 10 -5 -5 -8 -1 -10 10 -5 13 5 15 3 9 -7 -5 -9 -4 -11 4 -6 16 10 73 -13 64
-27 -3 -5 -1 -7 4 -4 14 9 74 -13 67 -24 -3 -5 1 -7 8 -4 18 7 110 -29 101
-40 -5 -4 -2 -5 4 -1 15 8 94 -14 88 -25 -3 -4 5 -5 17 -1 16 4 19 2 13 -8 -5
-9 -4 -11 4 -6 14 9 112 -14 106 -24 -3 -4 7 -5 22 -2 14 3 23 1 20 -4 -3 -5
9 -9 26 -10 18 0 85 -10 150 -22 189 -35 420 -47 616 -34 91 7 193 17 225 23
33 6 70 9 82 6 14 -2 21 0 17 6 -3 6 6 8 25 5 17 -2 29 -1 27 3 -6 9 74 21 87
13 6 -4 8 -3 5 3 -8 13 58 27 76 17 6 -4 8 -3 4 1 -9 11 192 77 211 70 7 -3
11 -1 8 3 -7 12 61 35 75 26 7 -4 9 -3 6 3 -8 13 50 36 66 26 5 -3 7 -1 3 5
-8 13 29 26 45 16 8 -5 9 -3 4 6 -6 10 -4 12 9 7 11 -5 15 -3 10 5 -5 8 -2 9
10 5 11 -5 15 -3 10 5 -5 8 -2 9 10 5 11 -5 15 -3 10 5 -5 8 -2 9 10 5 11 -5
15 -3 10 5 -5 8 -2 9 10 5 11 -5 15 -3 10 5 -5 8 -1 9 12 4 10 -4 15 -4 11 0
-10 11 71 57 85 48 7 -5 8 -3 3 6 -6 10 -4 12 8 7 10 -4 16 -2 14 6 -1 7 6 11
15 11 10 -1 15 3 11 9 -4 6 0 8 10 4 10 -4 16 -2 14 5 -1 6 3 12 8 14 6 2 505
-492 1110 -1098 l1100 -1103 -1105 1100 -1105 1100 1098 -1100 c622 -624 1106
-1101 1117 -1102 10 -1 24 5 30 13 7 7 17 11 24 7 6 -3 8 -3 4 2 -11 11 12 36
26 28 6 -3 8 -3 4 2 -11 11 12 36 26 28 6 -3 8 -3 4 2 -11 11 12 36 26 28 6
-3 8 -3 4 2 -11 11 12 36 26 28 6 -3 8 -3 4 2 -11 11 12 36 26 28 6 -3 8 -3 4
2 -11 11 12 36 26 28 6 -3 8 -3 4 2 -11 11 12 36 26 28 6 -3 8 -3 4 2 -11 11
12 36 26 28 6 -3 8 -3 4 2 -11 11 12 36 26 28 6 -3 8 -3 4 2 -11 11 12 36 26
28 6 -3 8 -3 4 2 -11 11 12 36 26 28 6 -3 8 -3 4 2 -11 11 12 36 26 28 6 -3 8
-3 4 2 -11 11 12 36 26 28 6 -3 8 -3 4 2 -11 11 12 36 26 28 6 -3 8 -3 4 2
-11 11 12 36 26 28 6 -3 8 -3 4 2 -11 11 12 36 26 28 6 -3 8 -3 4 2 -11 11 12
36 26 28 6 -3 8 -3 4 2 -11 11 12 36 26 28 6 -3 8 -3 4 2 -11 11 12 36 26 28
6 -3 8 -3 4 2 -11 11 12 36 26 28 6 -3 8 -3 4 2 -11 11 12 36 26 28 6 -3 8 -3
4 2 -11 11 12 36 26 28 6 -3 8 -3 4 2 -11 11 12 36 26 28 6 -3 8 -3 4 2 -11
11 12 36 26 28 6 -3 8 -3 4 2 -11 11 12 36 26 28 6 -3 8 -3 4 2 -11 11 12 36
25 28 5 -3 7 -1 4 4 -4 6 2 18 13 28 10 9 18 25 17 36 -1 10 -488 504 -1097
1111 l-1095 1093 1095 -1100 1095 -1100 -1103 1100 c-606 605 -1102 1101
-1102 1103 0 2 4 1 9 -2 5 -3 12 1 15 10 4 9 2 13 -5 8 -8 -4 -7 0 0 15 7 11
14 21 17 21 3 0 2 -5 -1 -10 -3 -5 -4 -10 -1 -10 3 0 10 10 17 21 7 15 8 19 0
15 -7 -5 -9 -1 -5 8 3 9 10 13 15 10 5 -3 6 3 2 12 -5 13 -3 15 7 9 9 -5 11
-4 6 3 -8 14 18 55 28 45 4 -4 4 1 0 11 -5 13 -4 17 4 12 8 -5 10 -1 5 10 -4
12 -3 15 5 10 8 -5 10 -1 5 10 -4 12 -3 15 5 10 8 -5 10 -1 5 10 -4 12 -3 15
5 10 8 -5 10 -1 5 10 -4 12 -3 15 5 10 8 -5 10 -1 5 10 -4 12 -3 15 5 10 8 -5
10 -1 5 10 -5 13 -3 15 7 9 9 -5 11 -4 6 4 -9 15 3 53 15 46 5 -3 6 2 2 11 -5
13 -3 15 7 9 9 -5 11 -4 6 4 -8 13 14 82 25 76 4 -3 7 1 6 8 -1 34 4 48 15 41
7 -4 8 -3 4 4 -4 7 9 61 28 122 20 60 36 117 36 125 0 9 4 13 10 10 5 -3 7 0
4 8 -3 8 -1 32 5 53 23 85 52 288 63 443 13 178 2 411 -27 590 -9 52 -13 101
-10 108 2 8 1 12 -3 9 -11 -7 -45 151 -36 166 5 7 3 8 -6 3 -10 -6 -12 -1 -8
18 3 15 2 24 -2 22 -11 -7 -22 43 -14 57 5 7 2 8 -6 3 -10 -6 -12 -3 -8 13 4
12 3 20 -2 17 -10 -6 -23 43 -14 57 5 7 2 8 -6 3 -10 -6 -12 -3 -8 13 4 14 2
20 -5 15 -6 -4 -8 2 -5 15 4 12 2 20 -2 17 -12 -7 -23 32 -14 46 5 8 3 9 -6 4
-10 -6 -12 -4 -7 9 5 11 3 15 -5 10 -7 -5 -9 0 -6 14 4 14 2 20 -5 15 -7 -4
-8 0 -4 11 4 9 3 14 -2 11 -12 -7 -24 31 -15 46 5 8 3 9 -6 4 -10 -6 -12 -4
-7 9 5 11 3 15 -5 10 -8 -5 -9 -2 -5 10 5 11 3 15 -5 10 -8 -5 -9 -2 -5 10 5
11 3 15 -5 10 -8 -5 -9 -2 -5 10 5 11 3 15 -5 10 -8 -5 -9 -2 -5 10 4 9 3 15
-2 12 -4 -3 -13 6 -20 20 -9 20 -9 24 1 19 7 -4 3 2 -8 12 -24 20 -63 90 -44
78 9 -6 9 -2 1 14 -12 22 -27 30 -16 9 10 -19 -25 24 -37 46 -8 14 -7 17 4 11
7 -4 2 2 -11 13 -13 10 -21 24 -17 30 3 6 1 14 -5 18 -8 4 -9 3 -5 -4 15 -24
-2 -11 -19 14 -12 18 -13 24 -4 19 8 -4 3 3 -11 15 -14 12 -18 19 -10 15 8 -4
4 3 -10 16 -14 13 -21 22 -15 19 6 -3 -1 6 -15 20 -14 14 -19 21 -11 15 32
-22 -22 45 -65 81 -25 20 -43 42 -40 49 2 7 -14 30 -37 51 l-42 39 35 -41 c19
-22 11 -16 -18 14 -29 30 -51 57 -47 60 7 8 -46 62 -56 56 -4 -2 -32 19 -61
48 -30 29 -36 37 -14 18 l41 -35 -39 42 c-21 23 -44 39 -50 37 -7 -3 -23 8
-36 23 l-25 28 25 -20 25 -20 -19 22 c-10 13 -22 21 -26 18 -4 -2 -16 3 -26
11 -10 9 -13 12 -5 8 9 -5 12 -3 7 5 -4 6 -11 9 -15 7 -10 -7 -36 11 -36 25 0
7 -8 13 -19 15 -10 1 -24 8 -30 15 -8 9 -8 10 3 4 9 -5 12 -4 7 3 -4 6 -13 9
-20 6 -8 -3 -17 0 -22 7 -5 8 -3 10 7 4 8 -5 11 -4 6 1 -5 5 -16 9 -25 9 -9 0
-16 6 -14 13 1 6 -1 11 -5 11 -21 -3 -34 2 -28 11 4 6 3 10 -2 9 -19 -3 -34 2
-29 10 3 5 -2 8 -12 7 -9 0 -16 5 -14 12 1 8 -2 11 -8 7 -12 -8 -53 19 -43 29
4 4 -1 4 -11 0 -13 -5 -17 -4 -13 3 4 6 -1 10 -11 9 -9 0 -16 4 -15 11 2 8 -4
10 -14 6 -11 -4 -14 -3 -9 5 5 8 1 10 -10 5 -11 -4 -15 -2 -11 4 4 6 -1 10
-11 9 -9 0 -16 4 -15 11 2 8 -4 10 -14 6 -12 -5 -14 -3 -8 7 5 8 4 11 -2 7
-14 -9 -136 47 -126 57 4 4 -1 4 -11 0 -13 -5 -17 -4 -12 4 5 8 1 10 -10 5
-13 -5 -15 -3 -9 7 5 9 4 11 -4 6 -16 -10 -53 3 -45 16 4 7 2 8 -5 4 -16 -10
-53 3 -45 16 4 6 2 8 -3 5 -6 -4 -64 11 -129 32 -66 21 -154 47 -196 57 -42 9
-75 20 -73 24 2 3 -10 4 -27 2 -17 -3 -28 -1 -25 4 3 5 -11 9 -31 10 -21 0
-95 8 -167 17 -158 21 -510 21 -665 1z m-1470 -667 c0 -1 -51 -52 -112 -112
l-113 -110 110 113 c102 104 115 117 115 109z m3730 -102 c13 -14 21 -25 18
-25 -2 0 -15 11 -28 25 -13 14 -21 25 -18 25 2 0 15 -11 28 -25z m-1695 -135
c107 -15 225 -42 220 -50 -2 -4 7 -5 22 -2 19 4 24 2 18 -8 -5 -9 -4 -11 3 -6
16 10 153 -35 145 -47 -3 -6 -1 -7 4 -4 14 9 74 -13 67 -24 -3 -5 3 -6 12 -2
13 5 15 3 9 -7 -6 -9 -4 -11 4 -5 15 9 93 -24 85 -36 -3 -5 3 -6 12 -2 13 5
15 3 9 -7 -5 -9 -4 -11 3 -6 15 9 55 -18 44 -29 -4 -5 -1 -5 6 -1 11 7 82 -28
82 -40 0 -3 -5 -2 -12 2 -7 4 -8 3 -4 -5 4 -6 12 -9 17 -5 9 5 139 -81 139
-93 0 -3 -8 1 -17 8 -16 13 -17 12 -5 -3 8 -9 19 -15 25 -12 7 2 58 -40 113
-93 55 -54 71 -71 34 -38 -36 33 -18 13 40 -45 99 -98 182 -197 135 -160 -16
13 -15 10 4 -17 12 -18 25 -33 28 -33 3 0 -1 8 -8 18 -12 15 -12 15 1 5 21
-17 57 -78 39 -68 -8 5 -2 -3 14 -18 27 -26 37 -44 16 -31 -8 4 -8 0 0 -15 7
-11 14 -21 17 -21 3 0 2 5 -1 10 -3 6 -4 10 -1 10 11 0 37 -61 30 -72 -4 -6
-3 -8 3 -5 13 8 26 -20 16 -35 -4 -7 -1 -8 7 -3 10 6 12 4 7 -9 -4 -9 -3 -15
2 -12 11 7 23 -22 14 -36 -3 -6 -1 -8 5 -4 13 8 26 -29 16 -45 -5 -8 -3 -9 6
-4 10 6 12 3 8 -13 -4 -14 -2 -20 5 -15 7 4 8 0 4 -11 -4 -9 -3 -15 2 -12 11
7 24 -41 15 -56 -5 -7 -2 -8 6 -3 10 6 12 3 8 -13 -4 -14 -2 -20 5 -15 6 4 8
-2 5 -15 -4 -12 -3 -20 1 -17 9 5 45 -140 63 -255 26 -161 7 -603 -25 -583 -6
3 -7 1 -3 -6 11 -17 -4 -92 -16 -84 -7 4 -8 1 -4 -6 11 -17 -24 -142 -37 -134
-6 3 -7 1 -3 -6 9 -14 -2 -53 -14 -46 -4 3 -6 -5 -2 -17 4 -16 2 -19 -8 -13
-9 5 -11 4 -6 -4 9 -15 -3 -53 -15 -46 -5 3 -6 -2 -2 -11 5 -13 3 -15 -7 -9
-9 5 -11 4 -6 -4 7 -11 -47 -141 -59 -141 -3 0 -3 5 0 10 3 5 4 10 1 10 -3 0
-10 -10 -17 -21 -8 -16 -8 -20 1 -14 7 4 5 -6 -4 -24 -9 -17 -19 -31 -22 -31
-3 0 -2 5 2 12 4 7 3 8 -5 4 -6 -4 -8 -12 -5 -18 4 -6 -4 -20 -17 -30 -13 -11
-18 -17 -11 -13 22 11 13 -6 -20 -38 -18 -17 -26 -27 -19 -22 8 5 5 -6 -7 -23
-13 -17 -28 -35 -35 -38 -7 -4 -3 2 7 14 11 12 17 22 13 22 -3 0 -20 -19 -38
-42 -27 -35 -28 -39 -9 -23 14 10 -5 -10 -41 -45 -36 -36 -45 -47 -20 -25 25
21 -2 -9 -61 -69 -59 -59 -111 -105 -116 -102 -5 3 -16 -2 -23 -12 -13 -16
-12 -16 6 -2 20 15 20 15 1 -8 -11 -12 -25 -21 -32 -18 -7 3 -18 -3 -26 -12
-12 -15 -11 -16 5 -3 9 7 17 11 17 8 0 -11 -73 -56 -82 -51 -5 3 -7 0 -6 -8 2
-7 -5 -12 -15 -12 -10 1 -16 -1 -13 -4 9 -8 -33 -34 -44 -27 -6 4 -9 1 -8 -7
2 -7 -5 -12 -14 -12 -10 1 -15 -3 -11 -9 4 -6 0 -8 -11 -4 -11 5 -15 3 -10 -5
5 -8 2 -9 -10 -5 -10 4 -15 3 -11 -3 7 -12 -32 -33 -47 -24 -6 4 -8 3 -5 -3 8
-13 -68 -47 -84 -38 -8 6 -10 4 -4 -5 6 -10 4 -12 -9 -7 -9 4 -14 3 -11 -2 7
-12 -31 -24 -46 -15 -7 4 -9 3 -5 -4 8 -13 -179 -76 -206 -69 -10 3 -16 1 -13
-3 7 -11 -71 -24 -86 -14 -8 5 -9 3 -4 -6 6 -9 -1 -12 -28 -8 -20 2 -34 1 -32
-3 6 -9 -69 -18 -205 -25 -161 -9 -468 24 -453 49 4 6 1 7 -7 2 -17 -10 -121
15 -113 28 3 6 1 7 -5 3 -16 -10 -63 4 -55 17 3 6 1 7 -5 3 -16 -10 -63 4 -55
17 3 6 1 7 -6 3 -16 -10 -53 3 -45 16 4 7 2 8 -5 4 -16 -10 -53 3 -45 16 4 7
2 8 -4 4 -11 -6 -172 68 -172 80 0 3 5 2 12 -2 7 -4 8 -3 4 5 -4 6 -12 9 -17
6 -11 -7 -70 26 -64 36 3 4 -3 6 -13 5 -9 0 -16 4 -15 10 1 7 -5 11 -15 10 -9
0 -16 4 -15 10 1 7 -5 11 -15 10 -9 0 -17 6 -17 14 0 8 -7 14 -16 12 -9 -1
-24 8 -35 20 -19 22 -19 23 1 8 18 -14 19 -14 7 2 -8 9 -19 15 -26 12 -6 -2
-23 8 -36 23 l-25 28 30 -25 30 -25 -24 27 c-13 15 -28 25 -35 22 -6 -2 -45
31 -86 73 l-75 78 71 -65 c39 -36 26 -22 -29 32 -55 53 -96 101 -93 107 4 5
-7 20 -24 32 -33 25 -73 77 -49 64 8 -4 3 3 -11 15 -14 12 -19 19 -12 15 11
-6 12 -3 3 14 -7 11 -14 21 -17 21 -3 0 -2 -4 1 -10 3 -5 4 -10 1 -10 -11 0
-57 90 -52 99 4 5 1 13 -5 17 -8 4 -9 3 -5 -4 4 -7 5 -12 2 -12 -11 0 -46 81
-40 92 4 6 3 8 -3 5 -13 -8 -36 50 -26 66 4 6 1 7 -7 2 -10 -6 -12 -4 -7 9 4
10 3 15 -3 11 -9 -6 -14 10 -13 42 1 7 -4 10 -10 6 -6 -4 -8 2 -5 15 4 12 3
20 -2 17 -10 -6 -23 43 -14 57 4 6 3 8 -3 5 -13 -8 -27 39 -17 55 4 6 3 8 -3
5 -12 -7 -47 140 -64 268 -17 133 -7 434 20 558 31 145 62 247 74 240 6 -3 7
-1 3 6 -9 14 2 53 14 46 4 -3 6 5 2 17 -4 16 -2 19 8 13 9 -5 11 -4 6 4 -10
16 3 53 16 45 6 -4 8 -2 4 4 -8 13 14 63 24 57 5 -3 11 2 14 11 3 9 2 12 -4 9
-6 -4 -3 9 6 29 10 19 21 33 25 31 4 -3 10 2 13 11 3 8 2 12 -4 9 -20 -12 -9
6 18 32 15 15 21 23 14 18 -11 -6 -12 -3 -3 14 7 11 14 21 17 21 3 0 2 -4 -1
-10 -3 -5 -4 -10 -1 -10 3 0 10 10 17 21 9 17 8 20 -3 14 -7 -4 -2 3 12 15 14
12 18 19 10 15 -8 -4 -4 3 10 16 14 13 19 20 10 14 -8 -5 -3 6 12 25 15 19 30
34 35 33 4 0 17 11 27 25 19 27 19 27 0 12 -11 -8 7 9 38 38 32 30 56 58 52
63 -6 11 54 71 65 64 5 -2 23 12 42 33 l34 37 -35 -30 c-35 -30 -35 -29 2 8
21 21 42 36 47 33 5 -3 15 2 22 12 13 16 12 16 -6 2 -20 -15 -20 -15 -1 8 11
12 25 21 32 18 7 -3 18 3 26 12 11 15 11 16 -2 7 -9 -5 -4 0 10 13 14 12 30
20 37 17 7 -2 15 1 19 7 5 7 2 8 -7 3 -12 -8 -12 -6 0 9 8 9 20 15 28 12 8 -3
12 -2 9 2 -6 11 51 45 63 37 5 -3 13 0 17 6 4 8 3 9 -4 5 -7 -4 -12 -5 -12 -2
0 12 101 56 112 50 6 -4 8 -3 5 3 -8 13 41 36 55 27 7 -5 8 -2 3 6 -6 10 -4
12 9 7 9 -4 14 -3 11 2 -7 12 31 24 46 15 7 -4 9 -3 5 4 -8 13 29 26 45 16 8
-5 9 -3 4 6 -6 10 -3 12 13 8 14 -4 20 -2 15 5 -4 6 2 8 15 5 14 -4 20 -2 15
5 -4 6 2 8 15 5 14 -4 20 -2 16 4 -5 7 2 9 19 6 15 -3 24 -2 22 2 -7 11 91 34
111 26 8 -3 13 -2 10 3 -5 7 39 16 164 35 55 8 359 5 425 -4z m1900 -100 c10
-11 16 -20 13 -20 -3 0 -13 9 -23 20 -10 11 -16 20 -13 20 3 0 13 -9 23 -20z
m-3425 -453 c0 -2 -17 -19 -37 -38 l-38 -34 34 38 c33 34 41 42 41 34z m-109
-2324 c13 -16 12 -17 -3 -4 -10 7 -18 15 -18 17 0 8 8 3 21 -13z"/>
<path d="M3740 5946 c0 -2 8 -10 18 -17 15 -13 16 -12 3 4 -13 16 -21 21 -21
13z"/>
<path d="M3850 5855 c13 -14 26 -25 28 -25 3 0 -5 11 -18 25 -13 14 -26 25
-28 25 -3 0 5 -11 18 -25z"/>
<path d="M4055 5650 c10 -11 20 -20 23 -20 3 0 -3 9 -13 20 -10 11 -20 20 -23
20 -3 0 3 -9 13 -20z"/>
<path d="M4095 5600 c10 -11 20 -20 23 -20 3 0 -3 9 -13 20 -10 11 -20 20 -23
20 -3 0 3 -9 13 -20z"/>
<path d="M1335 3350 c10 -11 20 -20 23 -20 3 0 -3 9 -13 20 -10 11 -20 20 -23
20 -3 0 3 -9 13 -20z"/>
<path d="M3900 3195 c-24 -25 -42 -45 -39 -45 3 0 25 20 49 45 24 25 42 45 39
45 -3 0 -25 -20 -49 -45z"/>
<path d="M4775 6240 c10 -11 20 -20 23 -20 3 0 -3 9 -13 20 -10 11 -20 20 -23
20 -3 0 3 -9 13 -20z"/>
<path d="M520 2876 c0 -2 8 -10 18 -17 15 -13 16 -12 3 4 -13 16 -21 21 -21
13z"/>
<path d="M675 2690 c21 -22 41 -40 44 -40 3 0 -13 18 -34 40 -21 22 -41 40
-44 40 -3 0 13 -18 34 -40z"/>
</g>
</svg>
