<?xml version="1.0" standalone="no"?>
<!DOCTYPE svg PUBLIC "-//W3C//DTD SVG 20010904//EN"
 "http://www.w3.org/TR/2001/REC-SVG-20010904/DTD/svg10.dtd">
<svg version="1.0" xmlns="http://www.w3.org/2000/svg"
 width="866.000000pt" height="650.000000pt" viewBox="0 0 866.000000 650.000000"
 preserveAspectRatio="xMidYMid meet">

<g transform="translate(0.000000,650.000000) scale(0.100000,-0.100000)"
fill="#000000" stroke="none">
<path d="M2292 5551 c-66 -23 -154 -82 -192 -132 -42 -52 -79 -137 -90 -206
-14 -81 -13 -3873 0 -3944 12 -64 58 -161 97 -205 51 -56 123 -103 189 -124
65 -20 85 -20 2040 -20 l1973 0 65 24 c119 43 207 130 259 256 l22 55 3 1208
c1 664 -1 1207 -4 1207 -4 0 -148 -143 -320 -317 l-313 -318 0 -742 -1 -743
-1690 0 -1690 0 0 1695 0 1695 743 0 742 0 315 315 315 315 -1205 0 c-1140 -1
-1208 -2 -1258 -19z"/>
<path d="M5661 5427 l-143 -145 85 -56 c278 -183 510 -410 689 -676 39 -58 73
-107 75 -110 5 -5 271 259 283 281 13 23 -7 195 -36 309 -63 251 -195 402
-419 478 -90 30 -209 53 -305 59 l-85 5 -144 -145z"/>
<path d="M4340 4105 c-573 -573 -931 -938 -925 -943 6 -5 57 -41 115 -80 258
-174 496 -414 658 -663 31 -48 62 -88 68 -88 10 -1 1786 1774 1841 1840 l25
29 -47 87 c-124 235 -340 472 -570 625 -65 43 -214 128 -225 128 -3 0 -426
-421 -940 -935z"/>
<path d="M3107 2872 l-47 -48 0 -422 0 -422 428 0 428 0 48 49 49 49 -43 79
c-149 271 -356 496 -605 656 -71 45 -188 107 -203 107 -4 0 -29 -22 -55 -48z"/>
</g>
</svg>
